<?xml version="1.0" encoding="UTF-8"?>
<svg id="Layer_1" xmlns="http://www.w3.org/2000/svg" version="1.1" viewBox="0 0 500 500">
  <!-- Generator: Adobe Illustrator 29.4.0, SVG Export Plug-In . SVG Version: 2.1.0 Build 152)  -->
  <defs>
    <style>
      .st0 {
        fill: currentColor;
        fill-rule: evenodd;
      }
    </style>
  </defs>
  <path id="path31" class="st0" d="M217,271.6c0-18.3,14.8-33,33-33s33,14.8,33,33-14.8,33-33,33-33-14.8-33-33ZM328.4,285.4c-14.5,7.2-30.1,12.4-46.5,15.4,7.1-7.7,11.4-18,11.4-29.3,0-23.9-19.4-43.3-43.3-43.3s-43.3,19.4-43.3,43.3,4.3,21.6,11.4,29.3c-16.4-3-32-8.2-46.5-15.4,10.2-42.6,39.5-77.8,78.4-96,38.8,18.2,68.1,53.4,78.4,96h0ZM392.2,250c-34.5,39.8-85.4,65-142.2,65s-107.7-25.2-142.2-65c34.5-39.8,85.4-65,142.2-65s107.7,25.2,142.2,65ZM156,150.3c29.7-9.1,61.3-14,94-14s64.3,4.9,94,14h-187.9ZM104.2,171.4c8-4.1,16.1-7.9,24.5-11.3h242.6c8.3,3.4,16.5,7.2,24.5,11.3H104.2ZM344,349.7c-29.7,9.1-61.3,14-94,14s-64.3-4.9-94-14h187.9ZM395.8,328.6c-8,4.1-16.1,7.9-24.5,11.3h-242.6c-8.3-3.4-16.5-7.2-24.5-11.3h291.6ZM494.5,250c-1.6,1.9-3.2,3.8-4.9,5.6h-85c-2.8,3.4-5.7,6.6-8.7,9.8h84.7c-3.7,3.9-7.5,7.6-11.4,11.3h-84.9c-3.8,3.4-7.7,6.7-11.8,9.8h85.8c-4.5,3.9-9.2,7.7-13.9,11.3h-88.2c-5.7,3.5-11.5,6.8-17.6,9.8h92.3c-5.7,3.9-11.6,7.7-17.6,11.3h-102.8c-19.1,6-39.5,9.3-60.6,9.3s-41.5-3.3-60.6-9.3h-102.8c-6-3.6-11.9-7.3-17.6-11.3h92.3c-6-3-11.9-6.2-17.6-9.8H55.5c-4.7-3.6-9.4-7.4-13.9-11.3h85.8c-4-3.1-8-6.4-11.8-9.8H30.8c-3.9-3.7-7.7-7.4-11.4-11.3h84.7c-3-3.2-5.9-6.4-8.7-9.8H10.4c-1.6-1.9-3.3-3.7-4.9-5.6,1.6-1.9,3.2-3.8,4.9-5.6h85c2.8-3.4,5.7-6.6,8.7-9.8H19.4c3.7-3.9,7.5-7.6,11.4-11.3h84.9c3.8-3.4,7.7-6.7,11.8-9.8H41.6c4.5-3.9,9.2-7.7,13.9-11.3h88.2c5.7-3.5,11.5-6.8,17.6-9.8h-92.3c5.7-3.9,11.6-7.7,17.6-11.3h102.8c19.1-6,39.5-9.3,60.6-9.3s41.5,3.3,60.6,9.3h102.8c6,3.6,11.9,7.3,17.6,11.3h-92.3c6,3,11.9,6.2,17.6,9.8h88.2c4.7,3.6,9.4,7.4,13.9,11.3h-85.8c4,3.1,8,6.4,11.8,9.8h84.9c3.9,3.7,7.7,7.4,11.4,11.3h-84.7c3,3.2,5.9,6.4,8.7,9.8h85c1.6,1.9,3.3,3.7,4.9,5.6Z"/>
</svg>
