<?xml version="1.0" encoding="UTF-8"?>
<svg id="Layer_1" xmlns="http://www.w3.org/2000/svg" version="1.1" viewBox="0 0 500 500">
  <!-- Generator: Adobe Illustrator 29.4.0, SVG Export Plug-In . SVG Version: 2.1.0 Build 152)  -->
  <defs>
    <style>
      .st0 {
        fill: currentColor;
        fill-rule: evenodd;
      }
    </style>
  </defs>
  <path id="path29" class="st0" d="M12.2,375.9l17.7-49.9h17.7l17.7,49.9h-15.7l-2.7-8.6h-16.2l-2.8,8.6h-15.7ZM38.8,338.7l-5.3,17.6h10.7l-5.3-17.6ZM69.3,375.9v-49.9h21.7c5.3,0,9.3,1.1,11.9,3.4,2.6,2.3,4.4,4.8,5.3,7.5.3,1,.6,2,.7,3,.1,1,.2,1.9.2,2.7s0,1.8-.2,2.7c-.1,1-.4,2-.7,3-.9,2.8-2.6,5.3-5.3,7.6-2.7,2.3-6.6,3.5-12,3.5h-7.1v16.5h-14.7ZM84,337v11.5h3.3c2,0,3.5-.3,4.5-1,.9-.7,1.6-1.4,1.9-2.1.2-.5.3-1,.4-1.5,0-.5,0-.9,0-1.1s0-.6,0-.9c0-.3,0-.6-.1-.9-.2-1-.8-1.9-1.8-2.7-.9-.8-2.6-1.2-4.9-1.2h-3.3ZM115.7,375.9v-49.9h30.6v12h-16v37.9h-14.7ZM159.2,375.9l6.8-13.7-18.7-36.1h17.2l9.3,20.1,7.7-20.1h15.9l-22.4,49.9h-15.7ZM238.8,373.6c-1,.7-2,1.2-3,1.6-1,.4-2,.8-3,1.1-1.3.4-2.6.6-3.8.7-1.3.1-2.5.2-3.7.2h-.7c-7,0-13-2.3-18-6.9-5-4.6-7.5-11.1-7.5-19.4s2.6-15.3,7.8-19.7c5.2-4.4,11-6.7,17.4-6.7h.7c.9,0,1.7,0,2.6.1.9,0,1.8.2,2.8.4,1.4.3,2.8.7,4.2,1.3,1.4.6,2.7,1.3,4,2.1v14.5h-.7c-.3-.3-.6-.7-1-1.1-.4-.4-.8-.8-1.3-1.2-1-.9-2.3-1.7-3.9-2.5-1.5-.8-3.3-1.2-5.3-1.2-3.9,0-6.9,1.6-9.1,4.4-2.2,2.8-3.3,6.1-3.3,9.9s1.2,7.6,3.7,9.9,5.4,3.5,8.7,3.6c2.5,0,4.7-.7,6.7-1.8,1.9-1.1,3.5-2.3,4.8-3.6h.7v14.2ZM289.1,365.9v5.6c-.4.3-.9.7-1.7,1.2-.7.5-1.6,1-2.7,1.5-1.6.8-3.5,1.5-5.8,2.1-2.3.6-4.9,1-7.9,1-8,0-14.3-2.6-18.8-7.9-4.6-5.2-6.9-11.4-6.9-18.4s2.6-14.5,7.8-19.3c5.2-4.7,11.2-7.1,17.9-7.1s5.4.4,8.4,1.1c3.1.7,6.3,2.4,9.7,4.9v5.6c-2.3-2.3-5-4.1-8-5.5-3-1.4-6.3-2.1-10-2.1-6.1,0-11,2.2-14.7,6.6-3.7,4.4-5.7,9.3-6,14.5v1.2c0,5.6,1.9,10.8,5.6,15.4,3.7,4.6,8.7,6.9,15.1,6.9s6.7-.7,9.8-2c3.1-1.4,5.9-3.1,8.3-5.4h0ZM297.4,375.9v-49.9h38.4v49.9h-4.8v-45.9h-28.7v45.9h-4.8ZM348.3,375.9v-49.9h26.7v4h-21.9v16h21.1v4h-21.1v21.9h21.9v4h-26.7ZM385.3,375.9v-49.9h4.8v23.1l22.3-23.1h6l-23.6,24.1,24.1,25.7h-6.5l-22.3-24.2v24.2h-4.8ZM433.8,375.9v-45.9h-13.3v-4h31.5v4h-13.3v45.9h-4.8ZM459,375.9v-49.9h13.8c.9,0,1.8,0,2.8.1,1,0,2.1.3,3.3.6,2.2.6,4.2,1.8,6.1,3.7,1.9,1.8,2.8,4.8,2.8,8.8s-.9,7-2.7,8.8c-1.8,1.9-3.9,3.1-6.1,3.7-1.1.3-2.2.5-3.3.6-1.1,0-2,.1-2.8.1h-9v23.4h-4.8ZM463.8,330v18.4h8.8c.6,0,1.2,0,2-.1.7,0,1.5-.2,2.3-.4,1.5-.4,2.8-1.3,4.1-2.6,1.2-1.3,1.9-3.4,1.9-6.2s-.6-4.8-1.9-6.1c-1.3-1.3-2.6-2.1-4.1-2.6-.8-.2-1.5-.3-2.2-.4-.7,0-1.4-.1-2-.1h-8.8Z"/>
  <path id="path31" class="st0" d="M223.4,227.3c0-14.1,11.4-25.5,25.5-25.5s25.5,11.4,25.5,25.5-11.4,25.5-25.5,25.5-25.5-11.4-25.5-25.5ZM309.5,238c-11.2,5.5-23.3,9.6-35.9,11.9,5.5-6,8.8-13.9,8.8-22.6,0-18.5-15-33.4-33.4-33.4s-33.4,15-33.4,33.4,3.3,16.7,8.8,22.6c-12.7-2.3-24.7-6.4-35.9-11.9,7.9-32.9,30.5-60.2,60.6-74.3,30,14.1,52.7,41.3,60.6,74.3h0ZM358.9,210.6c-26.7,30.8-66,50.2-109.9,50.2s-83.3-19.5-109.9-50.2c26.7-30.8,66-50.2,109.9-50.2s83.3,19.5,109.9,50.2ZM176.3,133.6c23-7.1,47.4-10.8,72.6-10.8s49.7,3.8,72.6,10.8h-145.3ZM136.2,149.9c6.2-3.2,12.5-6.1,18.9-8.7h187.6c6.5,2.6,12.8,5.6,18.9,8.7h-225.4ZM321.6,287.7c-23,7.1-47.4,10.8-72.6,10.8s-49.7-3.8-72.6-10.8h145.3ZM361.7,271.4c-6.2,3.2-12.5,6.1-18.9,8.7h-187.6c-6.5-2.6-12.8-5.6-18.9-8.7h225.4ZM438,210.6c-1.2,1.5-2.5,2.9-3.8,4.4h-65.7c-2.2,2.6-4.4,5.1-6.7,7.6h65.5c-2.9,3-5.8,5.9-8.8,8.7h-65.6c-2.9,2.6-6,5.2-9.1,7.6h66.3c-3.5,3-7.1,5.9-10.7,8.7h-68.2c-4.4,2.7-8.9,5.3-13.6,7.6h71.4c-4.4,3.1-9,6-13.6,8.7h-79.5c-14.8,4.7-30.5,7.2-46.9,7.2s-32.1-2.5-46.9-7.2h-79.5c-4.6-2.8-9.2-5.7-13.6-8.7h71.4c-4.7-2.3-9.2-4.8-13.6-7.6h-68.2c-3.7-2.8-7.2-5.7-10.7-8.7h66.3c-3.1-2.4-6.2-4.9-9.1-7.6h-65.6c-3-2.8-5.9-5.7-8.8-8.7h65.5c-2.3-2.4-4.6-5-6.7-7.6H63.7c-1.3-1.4-2.5-2.9-3.8-4.4,1.2-1.5,2.5-2.9,3.8-4.4h65.7c2.2-2.6,4.4-5.1,6.7-7.6h-65.5c2.9-3,5.8-5.9,8.8-8.7h65.6c2.9-2.6,6-5.2,9.1-7.6h-66.3c3.5-3,7.1-5.9,10.7-8.7h68.2c4.4-2.7,8.9-5.3,13.6-7.6h-71.4c4.4-3.1,9-6,13.6-8.7h79.5c14.8-4.7,30.5-7.2,46.9-7.2s32.1,2.5,46.9,7.2h79.5c4.6,2.8,9.2,5.7,13.6,8.7h-71.4c4.7,2.3,9.2,4.8,13.6,7.6h68.2c3.7,2.8,7.2,5.7,10.7,8.7h-66.3c3.1,2.4,6.2,4.9,9.1,7.6h65.6c3,2.8,5.9,5.7,8.8,8.7h-65.5c2.3,2.4,4.6,5,6.7,7.6h65.7c1.3,1.4,2.5,2.9,3.8,4.4Z"/>
</svg>
