<?xml version="1.0" standalone="no"?>
<!DOCTYPE svg PUBLIC "-//W3C//DTD SVG 20010904//EN"
 "http://www.w3.org/TR/2001/REC-SVG-20010904/DTD/svg10.dtd">
<svg version="1.0" xmlns="http://www.w3.org/2000/svg"
 width="620.000000pt" height="620.000000pt" viewBox="0 0 620.000000 620.000000"
 preserveAspectRatio="xMidYMid meet">
<metadata>
Created by potrace 1.14, written by Peter Selinger 2001-2017
</metadata>
<g transform="translate(0.000000,620.000000) scale(0.100000,-0.100000)"
fill="#000000" stroke="none">
<path d="M0 3100 l0 -3100 3100 0 3100 0 0 3100 0 3100 -3100 0 -3100 0 0
-3100z m3430 1169 c249 -22 562 -79 730 -133 l75 -24 -1135 0 -1135 0 75 24
c157 50 484 111 715 133 131 12 542 13 675 0z m1297 -341 l138 -63 -845 -5
c-546 -3 -813 -8 -755 -13 166 -16 299 -38 420 -70 l120 -32 645 -5 645 -5
103 -65 102 -65 -552 -5 -552 -5 102 -57 103 -58 537 0 537 -1 80 -67 80 -67
-518 -3 -518 -2 67 -55 67 -55 516 0 517 0 69 -70 69 -70 -513 0 -513 0 52
-60 52 -60 517 0 518 0 32 -35 31 -35 -31 -35 -32 -35 -518 0 -517 0 -52 -60
-52 -60 513 0 513 0 -69 -70 -69 -70 -517 0 -516 0 -67 -55 -67 -55 518 -2
518 -3 -80 -67 -80 -67 -537 -1 -537 0 -103 -57 -102 -58 552 -5 552 -5 -102
-65 -103 -65 -645 -5 -645 -5 -120 -32 c-121 -32 -254 -54 -420 -70 -58 -5
209 -10 755 -13 l845 -5 -138 -62 -138 -63 -1489 0 -1489 0 -138 63 -138 62
845 5 c546 3 813 8 755 13 -166 16 -299 38 -420 70 l-120 32 -645 5 -645 5
-103 65 -102 65 552 5 552 5 -102 58 -103 57 -537 0 -537 1 -80 67 -80 67 518
3 518 2 -67 55 -67 55 -516 0 -517 0 -69 70 -69 70 513 0 513 0 -52 60 -52 60
-518 0 -518 0 -26 31 c-32 38 -32 40 0 78 l26 31 518 0 518 0 52 60 52 60
-513 0 -513 0 69 70 69 70 517 0 516 0 67 55 67 55 -518 2 -518 3 80 67 80 67
537 1 537 0 103 58 102 57 -552 5 -552 5 102 65 103 65 645 5 645 5 120 32
c121 32 254 54 420 70 58 5 -209 10 -755 13 l-845 5 135 62 135 62 1492 0
1492 1 138 -62z m-567 -2264 c-168 -54 -481 -111 -730 -133 -148 -14 -512 -14
-660 0 -249 22 -562 79 -730 133 l-75 24 1135 0 1135 0 -75 -24z"/>
<path d="M2935 3684 c-187 -19 -339 -47 -469 -85 -300 -87 -598 -246 -836
-447 -109 -91 -250 -234 -250 -252 0 -18 141 -161 250 -252 334 -281 731 -455
1185 -520 116 -16 454 -16 570 0 454 65 851 239 1185 520 109 91 250 234 250
252 0 18 -141 161 -250 252 -325 274 -713 447 -1145 513 -98 15 -411 27 -490
19z m244 -85 c339 -186 599 -459 759 -799 45 -97 112 -287 112 -319 0 -19 -26
-32 -194 -97 -75 -29 -232 -75 -339 -98 l-28 -7 42 61 c63 93 89 176 89 291 0
154 -46 271 -148 374 -282 284 -763 162 -876 -224 -10 -34 -16 -91 -16 -150 0
-115 26 -198 89 -291 l42 -61 -28 7 c-107 23 -264 69 -339 98 -168 65 -194 78
-194 97 0 32 67 222 112 319 132 280 342 528 596 699 57 40 231 141 241 141 2
0 38 -19 80 -41z m74 -588 c80 -31 167 -114 209 -199 31 -62 33 -73 33 -172 0
-97 -2 -110 -32 -172 -145 -306 -581 -306 -726 0 -30 62 -32 75 -32 172 0 93
3 112 27 162 29 63 101 146 155 179 100 62 250 74 366 30z"/>
</g>
</svg>
